<svg width="20" height="20" viewBox="0 0 20 20" fill="none" xmlns="http://www.w3.org/2000/svg">
<path d="M7.34766 12.651L12.651 7.34766" stroke="#05473C" stroke-width="2" stroke-linejoin="round"/>
<path d="M11.3258 13.9771L9.11604 16.1868C8.41274 16.8899 7.45897 17.2848 6.46452 17.2847C5.47007 17.2846 4.51638 16.8896 3.81319 16.1864C3.11001 15.4832 2.71493 14.5295 2.71484 13.5351C2.71476 12.5406 3.10968 11.5868 3.81274 10.8835L6.02245 8.67383" stroke="#05473C" stroke-width="2" stroke-linejoin="round"/>
<path d="M13.9791 11.3253L16.1888 9.11555C16.8919 8.41225 17.2868 7.45849 17.2867 6.46403C17.2866 5.46958 16.8915 4.51589 16.1883 3.81271C15.4852 3.10952 14.5315 2.71444 13.537 2.71436C12.5426 2.71427 11.5888 3.10919 10.8855 3.81225L8.67578 6.02196" stroke="#05473C" stroke-width="2" stroke-linejoin="round"/>
</svg>
