<svg width="15" height="14" viewBox="0 0 15 14" fill="none" xmlns="http://www.w3.org/2000/svg">
<path d="M10.9547 4.31275C9.83211 4.2192 8.70953 4.87404 8.14824 5.80953V5.90308V4.49985H5.06114C5.06114 5.34178 5.06114 13.8547 5.06114 13.8547H8.14824V8.61598C8.14824 8.33533 8.14824 8.14824 8.24179 7.86759C8.42888 7.21275 9.08372 6.74501 9.83211 6.74501C10.9547 6.74501 11.4224 7.58695 11.4224 8.80307V13.7611H14.5095V8.52243C14.5095 5.62243 13.0128 4.31275 10.9547 4.31275Z" fill="#05473C"/>
<path d="M3.28372 4.49985H0.196621V13.8547H3.28372V4.49985Z" fill="#05473C"/>
<path d="M1.78633 0.00891225C0.944396 -0.0846361 0.102461 0.570203 0.00891225 1.41214C-0.0846361 2.25407 0.570203 3.09601 1.41214 3.18956C1.50569 3.18956 1.59923 3.18956 1.78633 3.18956C2.62827 3.28311 3.4702 2.62827 3.56375 1.78633C3.6573 0.944396 3.00246 0.102461 2.16053 0.00891225C2.06698 0.00891225 1.87988 0.00891225 1.78633 0.00891225Z" fill="#05473C"/>
</svg>
