<svg width="17" height="14" viewBox="0 0 17 14" fill="none" xmlns="http://www.w3.org/2000/svg">
<path d="M16.2 1.52156C15.5912 1.79212 14.9486 1.96122 14.2891 2.04577C14.9825 1.63993 15.5067 0.99734 15.7603 0.23638C15.1008 0.625315 14.3906 0.895879 13.6466 1.04807C12.3952 -0.287837 10.2983 -0.355478 8.94551 0.895879C8.2691 1.52156 7.89708 2.40089 7.89708 3.31404C7.89708 3.56769 7.9309 3.82135 7.98163 4.075C5.30981 3.92281 2.8071 2.67145 1.11607 0.591495C0.219833 2.0965 0.642588 4.04118 2.09687 5.02197C1.57265 5.00506 1.04843 4.86978 0.591858 4.61613C0.591858 6.20569 1.70793 7.55851 3.26367 7.8798C2.77328 8.01508 2.26597 8.03199 1.75866 7.93053C2.19833 9.31717 3.4666 10.2641 4.92088 10.2641C3.73716 11.1942 2.28288 11.6846 0.794781 11.6846C0.524217 11.7015 0.270564 11.7015 0 11.6846C1.52192 12.6654 3.29749 13.1727 5.10689 13.1727C10.2983 13.2065 14.5259 9.0297 14.5597 3.83826C14.5597 3.77062 14.5597 3.71989 14.5597 3.65225C14.5597 3.50005 14.5597 3.36477 14.5597 3.21258C15.2023 2.77291 15.7603 2.19797 16.2 1.52156Z" fill="#05473C"/>
</svg>
